<svg xmlns="http://www.w3.org/2000/svg" viewBox="0 0 48 48" id="FindBug"><g data-name="Layer 2" fill="#000000" class="color000000 svgShape"><path fill="#bc7c22" d="M16.5,32.5a1,1,0,0,1-.71-.29,1,1,0,0,1,0-1.42l2.31-2.31a1,1,0,1,1,1.42,1.42l-2.31,2.31A1,1,0,0,1,16.5,32.5Z" class="colorb9d5ea svgShape"></path><circle cx="28" cy="20" r="12" fill="#fef6eb" class="colorebf3fe svgShape"></circle><path fill="#ffb348" d="M28,6A14,14,0,1,0,42,20,14,14,0,0,0,28,6Zm0,26A12,12,0,1,1,40,20,12,12,0,0,1,28,32Z" class="color48bdff svgShape"></path><path fill="#bc7c22" d="M26 17a1 1 0 0 1-1-1V15a1 1 0 0 0-1-1 1 1 0 0 1 0-2 3 3 0 0 1 3 3v1A1 1 0 0 1 26 17zM30 17a1 1 0 0 1-1-1V15a3 3 0 0 1 3-3 1 1 0 0 1 0 2 1 1 0 0 0-1 1v1A1 1 0 0 1 30 17zM24 23H22a1 1 0 0 1 0-2h2a1 1 0 0 1 0 2zM24 27H22a1 1 0 0 1 0-2h2a1 1 0 0 1 0 2zM34 23H32a1 1 0 0 1 0-2h2a1 1 0 0 1 0 2zM34 27H32a1 1 0 0 1 0-2h2a1 1 0 0 1 0 2z" class="colorb9d5ea svgShape"></path><path fill="#f6a22d" d="M18.71 32.29l-3-3a1 1 0 0 0-1.42 0l-9 9a1 1 0 0 0 0 1.42l3 3a1 1 0 0 0 1.42 0l9-9A1 1 0 0 0 18.71 32.29zM33 19.79v4.42A4.8 4.8 0 0 1 28.21 29h-.42A4.8 4.8 0 0 1 23 24.21V19.79a4.07 4.07 0 0 1 .07-.79h9.86A4.07 4.07 0 0 1 33 19.79z" class="color2d98f6 svgShape"></path><path fill="#bc7c22" d="M28,28a1,1,0,0,1-1-1V18a1,1,0,0,1,2,0v9A1,1,0,0,1,28,28Z" class="colorb9d5ea svgShape"></path><path fill="#ffb348" d="M32.93,19H23.07a4.79,4.79,0,0,1,4.72-4h.42A4.79,4.79,0,0,1,32.93,19Z" class="color48bdff svgShape"></path></g></svg>