<svg xmlns="http://www.w3.org/2000/svg" enable-background="new 0 0 32 32" viewBox="0 0 32 32" id="google"><path fill="#FFF9DD" d="M26,32H6c-3.314,0-6-2.686-6-6V6c0-3.314,2.686-6,6-6h20c3.314,0,6,2.686,6,6v20C32,29.314,29.314,32,26,32z"></path><path fill="#FFD200" d="M23.855,16.187c0-0.532-0.051-0.926-0.125-1.335h-7.58v2.751h4.52c-0.186,1.178-1.368,3.449-4.52,3.449c-2.716,0-4.935-2.261-4.935-5.052c0-4.497,5.272-6.562,8.107-3.813l2.167-2.093C20.098,8.79,18.294,8,16.149,8c-4.405,0-7.962,3.574-7.962,8c0,4.426,3.557,8,7.962,8C20.744,24,23.854,20.752,23.855,16.187z"></path></svg>