<svg xmlns="http://www.w3.org/2000/svg" viewBox="0 0 64 64" id="Protection"><g data-name="Artboard 18" fill="#000000" class="color000000 svgShape"><path fill="#bc7c22" d="M32,2C21,14,9,14,9,14V34S8,54,32,62c24-8,23-28,23-28V14S43,14,32,2Z" class="colorffb127 svgShape"></path><path fill="#ffc778" d="M32,7c-9.085,9.91-19,10-19,10l.005,16.652S12.179,50.169,32,56.776C51.821,50.169,51,33.652,51,33.652L51,17S41.085,16.91,32,7Z" class="colorffe078 svgShape"></path><path fill="#f2f2f2" d="M55,14S43,14,32,2c-7.36,8.03-15.163,10.684-19.524,11.563,1.578,12.9,7.885,35.011,32.247,41.549A27.871,27.871,0,0,0,55,34Z" opacity=".3" class="colorf2f2f2 svgShape"></path><rect width="20" height="13" x="22" y="30.989" fill="#bc7c22" class="colorffb127 svgShape"></rect><path fill="#ffbc5d" d="M25,36.943a4.046,4.046,0,0,0,4.046,4.046H42v-10H25Z" class="colorffd55d svgShape"></path><path fill="#e5e5e5" d="M37,30.989v-6a5,5,0,0,0-5-5h0a5,5,0,0,0-5,5v6H24v-6a8,8,0,0,1,8-8h0a8,8,0,0,1,8,8v6Z" class="colore5e5e5 svgShape"></path><rect width="2" height="2" x="38" y="32.989" fill="#f2f2f2" class="colorf2f2f2 svgShape"></rect><rect width="2" height="2" x="24" y="32.989" fill="#f2f2f2" class="colorf2f2f2 svgShape"></rect><rect width="2" height="2" x="24" y="39.989" fill="#f2f2f2" class="colorf2f2f2 svgShape"></rect><rect width="2" height="2" x="38" y="39.989" fill="#f2f2f2" class="colorf2f2f2 svgShape"></rect><path fill="#f2f2f2" d="M32,16.989a8,8,0,0,0-8,8v4h.924A1.076,1.076,0,0,0,26,27.913V24.989a6,6,0,0,1,12,0v2.924a1.076,1.076,0,0,0,1.076,1.076H40v-4A8,8,0,0,0,32,16.989Z" class="colorf2f2f2 svgShape"></path></g></svg>